# xmcd
# Track frame offsets:
# 150
# 14962
# 28465
# 41357
# 59915
# 75070
# 89835
# 109360
# 124620
# 139022
# 154832
# 170677
# 188910
# 200970
#
# Disc length: 2955 seconds
# Revision: 0
# Processed by: cddbd v1.4PL0 Copyright (c) Steve Scherf et al.
# Submitted via: VisiTrax 2.9.5.180 - For more info visit www.synapsa.com
#
DISCID=d30b890e
DTITLE=Tine Valand - She's just leavin'
DYEAR=1996
DGENRE=Country
TTITLE0=Ease this mind
TTITLE1=Walk the line
TTITLE2=Always
TTITLE3=Mother lode
TTITLE4=Hold on to me
TTITLE5=He'll never know
TTITLE6=Mineral wells
TTITLE7=Some hearts
TTITLE8=Keep passing the open windows
TTITLE9=Out of the snow
TTITLE10=She ain't goin' somewhere
TTITLE11=My aunt Anna
TTITLE12=Wings
TTITLE13=Invisible people
EXTD=
EXTT0=
EXTT1=
EXTT2=
EXTT3=
EXTT4=
EXTT5=
EXTT6=
EXTT7=
EXTT8=
EXTT9=
EXTT10=
EXTT11=
EXTT12=
EXTT13=
PLAYORDER=
